<svg width="305" height="292" viewBox="0 0 305 292" fill="none" xmlns="http://www.w3.org/2000/svg">
<path fill-rule="evenodd" clip-rule="evenodd" d="M71.7618 0.286081C71.7072 0.427611 71.3564 0.594095 70.9824 0.655769C69.0629 0.971983 65.6567 2.82114 63.0502 4.96173C60.8208 6.7927 57.4411 10.5038 55.8552 12.8624C55.6905 13.1075 55.3116 13.6517 55.0132 14.0718C54.7148 14.492 54.4707 14.9075 54.4707 14.995C54.4707 15.0825 54.3562 15.2682 54.2163 15.4076C53.9388 15.6841 53.7766 15.9839 52.3478 18.8612C50.405 22.7739 49.8372 24.2949 48.9317 28.0136C48.629 29.256 48.563 30.0993 48.5649 32.6983C48.5667 34.9428 48.6376 36.0353 48.8077 36.4415C48.9399 36.757 49.1059 37.3235 49.1767 37.7005C49.3681 38.7183 50.4618 40.9008 51.3132 41.9633C51.7248 42.477 52.2995 43.2583 52.5902 43.6995C53.9145 45.7083 56.123 48.0835 58.3548 49.899C58.9661 50.3963 59.5698 50.8914 59.6965 50.9995C59.9866 51.2469 61.7746 52.5681 62.5559 53.1124C63.6593 53.8809 66.0913 55.3947 66.9927 55.8738C67.1402 55.9525 67.905 56.3683 68.6921 56.7982C71.489 58.3262 77.1405 60.9896 77.5856 60.9896C77.7172 60.9896 77.9923 61.1063 78.1966 61.2489C78.4009 61.3915 78.8818 61.6243 79.2651 61.7664C79.6483 61.9083 80.5254 62.2368 81.2141 62.4963C81.9028 62.7559 82.7078 63.0435 83.0029 63.1359C83.2981 63.228 83.7811 63.4179 84.0762 63.5576C84.3714 63.6974 84.971 63.9066 85.4086 64.0227C87.6493 64.6166 86.2306 64.6421 45.7947 64.7328L6.08211 64.8219L5.13688 65.2246C3.83799 65.7779 2.97558 66.3538 2.23178 67.1648C1.31356 68.1662 0.866522 68.8605 0.724129 69.507C0.654721 69.8211 0.463493 70.1532 0.299097 70.245C0.0216453 70.3997 0 72.4121 0 98.1545C0 123.897 0.0216453 125.909 0.299097 126.064C0.463493 126.156 0.654721 126.488 0.724129 126.802C1.04541 128.26 2.67935 129.871 5.0088 131.027C5.88498 131.462 6.01091 131.473 11.1804 131.568L16.4575 131.665L16.5469 208.758C16.6349 284.622 16.6419 285.863 16.9843 286.653C18.0707 289.158 20.0629 290.896 22.4949 291.462C23.0605 291.593 23.5235 291.768 23.5235 291.85C23.5235 291.933 81.5629 292 152.5 292C223.437 292 281.477 291.933 281.477 291.85C281.477 291.768 281.939 291.599 282.505 291.475C284.943 290.943 287.032 289.121 288.036 286.653C288.35 285.882 288.366 282.843 288.452 208.758L288.543 131.665L293.82 131.572L299.097 131.479L300.341 130.873C302.253 129.943 303.833 128.306 304.363 126.708C304.478 126.359 304.669 126.041 304.786 126.002C304.951 125.948 305 119.554 305 98.3051C305 72.2319 304.982 70.6612 304.687 70.3667C304.515 70.1953 304.374 69.9138 304.374 69.7416C304.374 69.3224 303.379 67.8233 302.587 67.05C301.643 66.1285 300.665 65.531 299.409 65.1089L298.29 64.7328L258.713 64.7118C236.945 64.7002 218.893 64.6392 218.598 64.5763C217.862 64.4195 217.98 64.1567 218.901 63.8999C219.907 63.6189 221.722 62.9967 222.176 62.7769C222.373 62.6815 222.876 62.481 223.294 62.3313C225.301 61.6128 225.611 61.4967 226.111 61.2769C226.407 61.1473 227.01 60.8689 227.453 60.6584C227.896 60.4479 228.323 60.2759 228.403 60.2761C228.543 60.2766 229.331 59.9328 231.657 58.8572C234.258 57.6546 237.498 55.9922 239.17 55.0031C239.564 54.7703 240.087 54.4778 240.333 54.3534C240.772 54.1313 243.833 52.1481 244.537 51.6301C247.577 49.3917 250.373 46.8823 251.981 44.9472C253.059 43.6503 254.802 41.107 255.018 40.5161C255.113 40.2573 255.303 39.8047 255.442 39.5106C256.351 37.5798 257.001 34.1086 256.91 31.6677C256.826 29.3957 256.516 27.3127 256.069 26.0076C255.875 25.4434 255.714 24.8819 255.711 24.7598C255.708 24.6377 255.549 24.2169 255.359 23.8247C255.169 23.4326 255.011 23.0139 255.008 22.8944C255.001 22.647 254.82 22.2649 253.132 18.9229C252.463 17.5994 251.765 16.3253 251.58 16.0914C251.396 15.8575 251.245 15.5693 251.245 15.4506C251.245 15.3321 251.084 15.0896 250.887 14.9123C250.69 14.7349 250.529 14.5248 250.529 14.4453C250.529 14.366 250.287 13.9572 249.99 13.5371C249.694 13.117 249.084 12.2386 248.635 11.5849C246.562 8.56752 242.042 4.17672 239.599 2.80705C237.654 1.71671 235.544 0.832414 234.462 0.6547C234.037 0.584826 233.646 0.41549 233.593 0.27806C233.452 -0.0877061 225.212 -0.0921626 225.072 0.273604C225.02 0.40836 224.588 0.574488 224.113 0.642757C223.137 0.782861 220.646 1.53133 219.881 1.91421C219.602 2.0536 219.288 2.1675 219.182 2.1675C218.976 2.1675 217.163 2.96035 216.72 3.24412C216.572 3.33877 216.25 3.49616 216.004 3.59402C215.758 3.69188 215.396 3.86674 215.199 3.9826C215.003 4.09864 214.268 4.48901 213.566 4.85032C212.864 5.21163 211.85 5.7986 211.311 6.15456C210.773 6.51071 210.28 6.80197 210.216 6.80197C210.152 6.80197 209.556 7.17825 208.893 7.63831C208.229 8.09819 207.284 8.75272 206.792 9.09246C205.048 10.2971 199.72 14.5069 197.848 16.159C197.159 16.7666 196.395 17.4165 196.149 17.6031C195.527 18.0767 182.189 31.3639 181.651 32.0468C181.409 32.3532 180.082 33.8772 178.702 35.4335C174.435 40.2461 167.572 48.5312 164.473 52.6119C164.287 52.857 163.606 53.7393 162.961 54.5726C161.44 56.5352 161.257 56.7769 160.764 57.4694C160.538 57.7879 159.792 58.8105 159.106 59.7419C158.421 60.6732 157.72 61.629 157.55 61.8657C157.38 62.1024 157.15 62.3871 157.04 62.4983C156.93 62.6095 156.717 62.9371 156.566 63.2264C156.416 63.5157 156.087 63.9731 155.836 64.2426L155.379 64.7328H152.535C149.909 64.7328 148.565 64.5542 148.565 64.2052C148.565 64.1302 148.343 63.7861 148.073 63.4407C147.802 63.0951 147.46 62.6347 147.312 62.4174C147.165 62.2001 146.561 61.3689 145.971 60.5702C145.381 59.7714 144.777 58.9454 144.629 58.7347C144.273 58.2266 141.69 54.7717 141.282 54.2579C141.106 54.0358 140.278 52.972 139.441 51.8939C137.722 49.6772 132.729 43.3938 132.364 42.9865C132.232 42.8394 131.974 42.5539 131.791 42.3517C131.609 42.1498 131.343 41.82 131.202 41.6189C131.06 41.4179 130.572 40.8211 130.117 40.2928C129.661 39.7646 128.464 38.3698 127.456 37.1934C124.319 33.5323 118.727 27.4906 115.113 23.8563C111.732 20.4572 105.36 14.7469 102.183 12.2699C101.909 12.0566 101.586 11.8018 101.465 11.7038C100.953 11.2892 99.0676 9.88335 98.6554 9.60938C98.4095 9.44575 97.7655 8.99211 97.2243 8.60139C94.4192 6.57523 87.9779 2.89368 87.2209 2.88388C87.081 2.88192 86.8395 2.7723 86.6842 2.64021C86.5288 2.50795 85.9993 2.26411 85.5073 2.09834C82.3661 1.03936 81.4577 0.771631 80.6143 0.655948C80.0694 0.581261 79.6274 0.420837 79.5723 0.277347C79.4277 -0.0980448 71.9063 -0.0896672 71.7618 0.286081ZM77.2181 16.3233C77.9401 16.462 78.7723 16.7021 79.0674 16.8568C79.3626 17.0115 79.7089 17.1386 79.837 17.1393C79.9651 17.1399 80.4078 17.3145 80.8209 17.5274C81.2339 17.7402 81.7328 17.9962 81.9296 18.096C82.8714 18.5737 83.5716 18.9475 83.8974 19.1466C87.984 21.6431 88.43 21.9446 90.3614 23.5144C90.5714 23.685 90.9694 23.9851 91.246 24.1812C95.8881 27.4726 104.854 36.1369 112.458 44.6798C117.099 49.8945 123.197 57.3886 123.117 57.7792C123.042 58.1478 121.145 58.0522 119.585 57.6014C118.946 57.4166 117.98 57.1843 117.438 57.0851C116.4 56.8945 113.902 56.3264 112.698 56.0066C110.943 55.5409 109.759 55.2482 108.762 55.0341C108.172 54.9072 107.304 54.6714 106.833 54.5097C106.362 54.3482 105.816 54.2161 105.62 54.2161C105.423 54.2161 104.963 54.0896 104.598 53.9349C104.232 53.7801 103.57 53.5862 103.128 53.504C102.685 53.4217 101.96 53.2311 101.518 53.0803C101.075 52.9295 99.6259 52.4729 98.2977 52.0654C95.3421 51.1586 92.9275 50.3585 90.3372 49.4275C89.255 49.0385 88.0073 48.5922 87.5645 48.4355C87.1218 48.279 86.5459 48.0316 86.2848 47.8858C86.0236 47.7402 85.7166 47.6209 85.6029 47.6209C85.4889 47.6209 84.9379 47.4115 84.3782 47.1553C83.8186 46.8994 82.9985 46.5317 82.5557 46.3381C79.5705 45.0338 75.8273 43.138 73.6478 41.8262C72.4632 41.1133 70.8079 40.0354 70.2933 39.6413C70.003 39.4192 69.5802 39.0983 69.3538 38.9283C68.4547 38.2533 65.8669 35.5874 65.4401 34.8966C65.1909 34.4933 64.7832 33.8621 64.5341 33.494C64.1402 32.9124 64.0933 32.6912 64.1752 31.8006C64.2273 31.2374 64.3911 30.4957 64.5398 30.1526C64.6883 29.8094 65.0342 28.9271 65.3085 28.1918C65.5827 27.4565 65.9033 26.7346 66.021 26.5876C66.1385 26.4405 66.2957 26.1197 66.37 25.8746C66.4444 25.6295 66.6551 25.2377 66.8385 25.0038C67.0216 24.77 67.1716 24.5062 67.1716 24.4174C67.1716 24.3286 67.32 24.0386 67.5014 23.773C67.6828 23.5073 68.0651 22.9317 68.3511 22.4939C68.637 22.056 68.9917 21.5633 69.1393 21.3989C69.2869 21.2348 69.6491 20.7617 69.9443 20.3478C70.7668 19.1944 73.6948 16.5089 74.3615 16.296C75.1951 16.0301 75.7191 16.0351 77.2181 16.3233ZM230.545 16.2602C232.289 16.7427 234.59 18.9582 236.829 22.3096C238.21 24.3771 240.154 27.8335 240.154 28.2214C240.154 28.3139 240.331 28.7663 240.547 29.2266C240.872 29.9171 240.942 30.3919 240.95 31.942C240.958 33.6769 240.925 33.8657 240.512 34.4107C239.053 36.336 236.51 38.5746 233.893 40.2377C233.024 40.7899 232.875 40.8776 231.389 41.7115C230.28 42.3334 225.864 44.5198 224.501 45.1214C224.01 45.3386 223.366 45.6281 223.07 45.765C222.002 46.26 218.943 47.4764 218.419 47.6147C218.124 47.6926 217.641 47.8858 217.346 48.0439C217.051 48.2022 216.665 48.3321 216.489 48.3329C216.313 48.3334 215.87 48.4845 215.505 48.6687C215.14 48.8528 214.56 49.0626 214.216 49.1348C213.871 49.2072 213.509 49.3294 213.411 49.4066C213.312 49.4836 212.869 49.6378 212.427 49.7492C211.984 49.8605 211.34 50.062 210.996 50.197C210.14 50.5324 208.76 50.9832 207.686 51.2788C207.194 51.4141 206.389 51.6522 205.897 51.8076C205.405 51.9633 204.48 52.2424 203.84 52.4279C203.201 52.6135 202.114 52.9324 201.425 53.1368C200.736 53.3411 200.035 53.5071 199.867 53.5056C199.698 53.5044 199.152 53.6636 198.652 53.8596C198.153 54.0557 197.548 54.2161 197.308 54.2161C197.068 54.2161 196.366 54.3716 195.749 54.5614C195.132 54.7512 193.662 55.1172 192.481 55.3744C191.3 55.6318 189.892 55.9598 189.35 56.1036C188.372 56.3633 187.312 56.5824 183.894 57.2309C182.911 57.4175 181.965 57.6264 181.793 57.6948C181.55 57.7911 181.479 57.7289 181.479 57.4203C181.479 57.0872 184.513 53.1137 186.715 50.562C186.969 50.2679 187.893 49.1851 188.769 48.1557C194.834 41.0297 203.463 32.2199 208.938 27.5633C209.627 26.9776 210.231 26.4541 210.28 26.3999C210.438 26.2261 212.516 24.5504 213.032 24.1812C213.306 23.9851 213.957 23.4982 214.479 23.0991C216.045 21.9016 220.228 19.192 221.46 18.5764C221.854 18.3796 222.297 18.1502 222.444 18.0666C223.428 17.5079 224.261 17.1404 224.542 17.1404C224.722 17.1404 225.049 17.0149 225.269 16.8614C226.136 16.2561 229.248 15.9014 230.545 16.2602ZM144.54 98.511V115.979L80.6248 116.024L16.7101 116.069L16.2707 115.631L15.8314 115.193V98.4299C15.8314 81.9003 15.8364 81.6615 16.1893 81.3098C16.5464 80.954 16.741 80.9531 80.5434 80.9978L144.54 81.0426V98.511ZM288.811 81.31C289.164 81.6615 289.169 81.9041 289.169 98.498V115.33L288.697 115.699L288.226 116.068H224.424C175.038 116.068 160.573 116.02 160.407 115.855C160.095 115.544 160.095 81.4775 160.407 81.1674C160.573 81.0018 175.063 80.9535 224.537 80.9535C288.215 80.9535 288.454 80.9547 288.811 81.31ZM144.54 132.334C144.594 132.554 144.615 165.02 144.588 204.48L144.54 276.225H88.4589H32.3783L32.3325 204.302C32.2897 136.838 32.3057 132.364 32.5903 132.155C32.8316 131.978 44.33 131.933 88.6686 131.933H144.443L144.54 132.334ZM272.532 132.289C272.889 132.644 272.89 132.881 272.887 204.257C272.886 243.643 272.821 275.969 272.742 276.092C272.629 276.27 261.268 276.306 216.53 276.27L160.46 276.225L160.412 204.48C160.385 165.02 160.406 132.554 160.46 132.334L160.557 131.933H216.366C271.936 131.933 272.176 131.934 272.532 132.289Z" fill="white"/>
</svg>
