<svg width="251" height="251" viewBox="0 0 251 251" fill="none" xmlns="http://www.w3.org/2000/svg">
<path fill-rule="evenodd" clip-rule="evenodd" d="M72.9526 0.0655316C71.6503 0.116992 70.175 0.193333 69.6741 0.235084C69.1732 0.276956 68.3809 0.342131 67.9134 0.379999C58.1479 1.17096 47.9473 4.1343 39.4999 8.63406C18.2552 19.9506 5.58063 35.9129 1.4421 56.5641C0.90989 59.2198 0.466931 62.4426 0.274593 65.0599C0.235373 65.594 0.168103 66.1947 0.12524 66.395C-0.019863 67.0731 -0.0500979 182.592 0.0942767 184.972C0.718402 195.267 3.45059 204.564 8.35362 213.077C12.3898 220.084 18.5644 227.438 25.1717 233.107C37.695 243.851 53.4099 249.828 71.2526 250.632C73.3216 250.725 83.7254 250.903 90.2556 250.956C105.319 251.08 178.114 250.918 179.928 250.757C180.229 250.731 180.966 250.677 181.567 250.638C184.363 250.457 188.262 249.919 191.342 249.289C203.346 246.832 214.701 241.66 224.024 234.403C228.454 230.954 233.041 226.418 236.494 222.071C243.169 213.667 247.805 203.596 249.856 193.044C250.719 188.605 251.021 185.211 250.999 180.178C250.99 178.009 250.964 151.302 250.942 120.829C250.919 90.3563 250.864 65.2602 250.819 65.0599C250.773 64.8597 250.702 64.2043 250.661 63.6035C250.564 62.1922 250.06 58.6787 249.679 56.7602C247.83 47.4429 244.016 38.9435 238.203 31.1833C224.677 13.1303 205.963 2.66246 183.449 0.557319C180.927 0.321499 179.797 0.249527 176.407 0.108739C173.676 -0.00474107 75.7634 -0.0456424 72.9526 0.0655316ZM171.165 18.7987C171.32 18.8373 173.178 18.8801 175.293 18.8941C180.587 18.9288 183.801 19.206 187.882 19.9799C198.079 21.9136 206.894 26.1864 214.474 32.8685C218.15 36.11 221.99 40.4828 224.571 44.3665C228.851 50.809 231.42 58.2467 232.011 65.9095C232.09 66.9285 232.139 87.8397 232.151 124.956C232.167 177.631 232.152 182.581 231.968 184.305C231.43 189.348 230.661 192.952 229.271 196.95C226.423 205.141 221.177 212.51 214.17 218.16C208.135 223.027 200.433 227.258 193.649 229.433C189.88 230.641 185.621 231.518 182.053 231.82C181.519 231.865 180.945 231.924 180.778 231.952C180.112 232.062 173.751 232.125 157.464 232.185C139.03 232.253 94.0903 232.253 90.1342 232.184C88.7985 232.161 84.4546 232.109 80.4809 232.07C73.2491 231.997 72.5564 231.976 69.6134 231.749C58.5883 230.898 48.7422 227.388 40.4106 221.34C36.1594 218.254 31.6823 213.774 28.3254 209.246C23.5189 202.764 20.9334 197.192 19.5952 190.434C19.2122 188.499 19.0554 187.351 18.7921 184.548C18.7088 183.66 18.7436 125.47 18.8463 94.1278C18.8638 88.7631 18.7823 81.321 18.6627 77.3789C18.5379 73.2646 18.5159 68.9382 18.6139 67.7907C19.1567 61.4357 20.3057 56.6537 22.5367 51.4666C27.4502 40.042 36.8154 30.5791 48.9711 24.7565C55.109 21.8164 63.4467 19.4708 69.2491 19.052C69.7834 19.0134 70.3025 18.947 70.4026 18.9045C70.5028 18.8621 76.1309 18.798 82.9094 18.7622C98.9043 18.6776 170.796 18.7074 171.165 18.7987ZM190.113 45.0917C186.045 45.6046 182.419 48.2099 180.546 51.9654C178.456 56.1572 178.671 61.0678 181.115 64.9993C181.781 66.0694 183.449 67.8456 184.482 68.5833C185.485 69.2999 186.982 70.0273 188.264 70.4202C189.252 70.7233 189.505 70.7501 191.403 70.7519C193.67 70.7542 194.404 70.6183 196.23 69.8585C199.439 68.5233 202.181 65.4293 203.278 61.9043C203.763 60.3477 203.892 59.2391 203.813 57.3167C203.677 54.0082 202.565 51.3377 200.327 48.9426C198.547 47.0368 196.39 45.8103 193.882 45.2767C192.818 45.0504 191.106 44.9663 190.113 45.0917ZM123.46 62.734C123.43 62.7612 122.667 62.8209 121.765 62.8667C117.264 63.0952 112.075 64.089 107.325 65.632C94.9501 69.6527 84.3603 77.4943 76.9644 88.1139C71.1873 96.4092 67.7888 105.847 66.8887 116.096C66.7763 117.376 66.7996 125.116 66.9176 125.684C66.9523 125.851 67.0168 126.397 67.061 126.897C67.3539 130.218 68.3516 134.896 69.5655 138.641C76.4129 159.761 94.9067 175.258 117.091 178.464C120.342 178.934 121.755 179.025 125.712 179.023C129.657 179.021 131.149 178.924 134.272 178.465C146.294 176.699 157.384 171.376 166.192 163.144C175.297 154.635 181.441 143.499 183.68 131.449C184.359 127.793 184.579 125.394 184.591 121.497C184.601 118.496 184.483 115.09 184.362 114.882C184.343 114.849 184.29 114.439 184.244 113.972C184.013 111.617 183.251 107.884 182.398 104.935C176.151 83.3265 157.611 67.0328 135.244 63.4953C133.316 63.1904 132.957 63.1453 130.751 62.9314C129.442 62.8045 123.558 62.6452 123.46 62.734ZM129.112 81.5642C144.255 82.9319 157.149 92.2433 162.911 105.972C164.901 110.714 165.854 115.48 165.847 120.662C165.841 125.388 165.34 128.686 163.995 132.844C159.809 145.792 148.945 155.843 135.593 159.12C133.85 159.548 131.482 159.974 130.144 160.101C129.71 160.142 129.191 160.195 128.99 160.218C128.408 160.287 122.98 160.28 122.312 160.21C120.237 159.992 119.32 159.859 117.677 159.537C102.21 156.507 89.7593 144.484 86.3874 129.325C85.6771 126.131 85.5324 124.694 85.5324 120.829C85.5324 116.983 85.681 115.497 86.3721 112.426C88.1177 104.67 92.2692 97.5232 98.1483 92.152C102.665 88.0255 108.289 84.8266 113.994 83.1388C116.814 82.3045 120.67 81.6408 123.648 81.4772C124.621 81.4238 128.185 81.4804 129.112 81.5642Z" fill="white"/>
</svg>
