<svg width="196" height="273" viewBox="0 0 196 273" fill="none" xmlns="http://www.w3.org/2000/svg">
<path fill-rule="evenodd" clip-rule="evenodd" d="M99.0685 0.0210838C99.0327 0.0540268 98.1232 0.118871 97.0476 0.165226C95.9719 0.21158 94.8278 0.276555 94.5051 0.309498C94.1824 0.342571 93.199 0.433067 92.3198 0.510672C91.4407 0.588407 90.6192 0.670309 90.4945 0.692835C90.3697 0.715361 89.9156 0.773826 89.4853 0.822654C76.6481 2.281 62.1811 6.78248 51.2844 12.7091C37.8663 20.007 27.0788 29.5224 18.4715 41.6525C8.28317 56.0104 2.21563 71.7008 0.571096 87.942C-0.233241 95.8857 -0.184347 105.195 0.694961 111.51C1.08025 114.277 1.23397 115.219 1.6113 117.128C3.7964 128.18 8.33206 138.544 14.1331 145.74C18.0145 150.555 23.1537 154.669 28.4732 157.22C31.5684 158.704 33.9419 158.676 35.4383 157.136C36.524 156.019 36.8676 155.169 37.7232 151.484C38.0391 150.124 38.623 147.813 39.0206 146.35C40.0315 142.63 40.2835 141.247 40.2917 139.375C40.3057 136.222 39.5782 134.389 37.0989 131.332C31.1761 124.028 28.3797 114.46 28.3876 101.526C28.3925 93.3059 29.5917 85.5074 32.1366 77.1452C34.2422 70.2265 36.9846 64.4075 40.978 58.3844C48.1565 47.5576 57.2079 39.3973 67.9068 34.1062C75.2396 30.4799 84.1527 27.9755 92.4841 27.2005C94.0234 27.0573 98.8087 27.0178 100.307 27.1358C105.931 27.5789 109.531 27.8499 110.607 27.9111C114.231 28.1171 116.227 28.402 118.822 29.0834C124.425 30.555 131.792 33.8038 136.619 36.9316C145.808 42.8858 153.139 52.6574 157.137 64.2807C159.021 69.7575 159.95 74.5536 160.473 81.4966C160.581 82.9339 160.545 94.6888 160.43 95.4942C160.4 95.709 160.338 96.6172 160.292 97.5124C160.247 98.4076 160.186 99.3158 160.155 99.5307C160.124 99.7455 160.065 100.39 160.023 100.963C159.827 103.639 159.291 107.915 158.709 111.445C156.68 123.76 152.636 136.649 148.13 145.169C144.346 152.324 139.237 158.851 134.332 162.796C126.565 169.043 116.827 171.605 108.587 169.569C102.919 168.169 97.3607 164.174 94.3514 159.339C91.0409 154.021 90.1389 147.841 91.5798 140.351C91.9679 138.334 92.483 136.296 93.6533 132.148C94.1079 130.537 94.9887 127.256 95.6106 124.856C96.2325 122.457 97.76 116.686 99.0049 112.031C102.858 97.6245 103.301 95.7756 103.886 91.653C104.281 88.8794 104.399 86.9404 104.343 84.1659C104.227 78.4174 103.002 73.2395 100.915 69.6818C98.7655 66.0155 95.3303 63.1561 91.5548 61.8903C89.5826 61.2292 88.4403 61.0399 85.9576 60.9631C83.2786 60.8802 81.589 61.0317 79.5898 61.5346C73.9319 62.9575 69.0806 66.6237 64.8916 72.6424C61.6888 77.2441 59.53 82.7309 57.9499 90.2858C56.2454 98.4351 56.3421 105.887 58.2765 115.416C58.9643 118.805 59.5451 121.071 60.36 123.544C61.4545 126.866 61.4875 127.469 60.7443 130.586C59.227 136.948 57.6788 143.707 52.9757 164.505C52.5871 166.224 52.0654 168.568 51.8164 169.714C51.5673 170.86 50.8613 174.067 50.2473 176.841C48.4984 184.745 47.6537 188.732 46.1996 195.951C45.4566 199.639 44.2909 205.147 43.6088 208.191C41.7717 216.389 41.0858 220.282 40.6603 224.923C40.5816 225.782 40.4935 226.661 40.4645 226.876C40.4356 227.091 40.3502 228.204 40.2748 229.35C40.1994 230.496 40.1087 231.872 40.0732 232.41C39.9216 234.706 39.8767 243.42 40.0003 246.537C40.1302 249.809 40.3362 253.527 40.4622 254.871C40.4958 255.229 40.5858 256.342 40.6623 257.345C40.8613 259.954 41.3854 265.099 41.7764 268.282C42.0612 270.6 42.1643 271.113 42.4542 271.646C43.2967 273.197 44.4193 273.419 45.7357 272.294C46.3219 271.793 51.5697 264.051 53.8738 260.288C55.2376 258.061 59.269 251.126 60.7612 248.44C64.3575 241.968 67.161 235.313 69.9827 226.55C72.5007 218.731 73.5287 215.043 74.6964 209.636C75.4581 206.109 76.7546 200.382 77.6914 196.407C78.6371 192.393 81.8929 179.23 81.9586 179.154C82.0352 179.066 83.5883 180.729 85.0596 182.474C88.9064 187.038 93.673 190.755 98.7426 193.143C103.813 195.531 109.979 196.988 115.888 197.194C117 197.233 118.071 197.29 118.269 197.321C118.843 197.411 123.69 197.147 125.576 196.924C136.791 195.595 148.279 190.935 157.81 183.848C163.63 179.52 169.175 173.896 173.865 167.565C181.544 157.198 188.302 142.378 191.558 128.763C192.239 125.916 192.709 123.402 193.724 117.174C194.231 114.059 194.733 110.983 194.838 110.338C195.096 108.756 195.626 104.489 195.832 102.33C196.093 99.5983 196.04 90.6051 195.743 87.3561C195.688 86.7558 195.488 82.8908 195.354 79.869C195.116 74.4746 193.862 68.5413 191.376 61.0537C185.215 42.493 172.265 25.7428 155.786 15.0202C144.563 7.71778 130.852 2.62671 117.779 0.907551C115.166 0.564058 114.827 0.528901 112.628 0.374863C111.589 0.301946 110.503 0.213403 110.216 0.177856C109.514 0.0911366 99.151 -0.054568 99.0685 0.0210838Z" fill="white"/>
</svg>
