<svg width="379" height="216" viewBox="0 0 379 216" fill="none" xmlns="http://www.w3.org/2000/svg">
<path fill-rule="evenodd" clip-rule="evenodd" d="M173.67 0.0210206C173.625 0.0645672 171.087 0.146529 168.031 0.203156C161.911 0.316741 154.669 0.742269 150.697 1.22178C142.288 2.23709 137.089 3.58489 133.779 5.60757C130.457 7.63754 127.037 10.9933 125.98 13.2602C125.197 14.9388 125.47 15.2835 127.928 15.7236C134.325 16.8691 139.165 19.189 142.329 22.6262C143.6 24.0071 145.178 27.1332 146.027 29.9488C146.57 31.7547 147.583 36.1551 147.951 38.3104C149.556 47.7107 150.088 65.4434 149.064 75.4101C147.843 87.294 147.237 91.5285 146.222 95.2733C145.765 96.9582 145.32 98.0654 144.154 100.41C142.281 104.18 141.787 104.774 140.133 105.248C137.55 105.989 135.396 106.039 133.558 105.401C129.605 104.029 124.172 99.4535 119.396 93.4747C114.12 86.871 107.903 76.5435 101.698 64.0781C100.809 62.291 99.1998 59.2268 98.123 57.2689C92.8423 47.667 85.2494 31.8071 81.1198 21.7528C79.5455 17.9203 78.9001 16.6712 77.7826 15.2953C75.938 13.0241 72.3787 10.9613 68.5085 9.92066L67.0986 9.5415L48.5211 9.6531C38.3034 9.71436 28.1522 9.79417 25.9627 9.83027C23.7732 9.86653 19.4066 9.90908 16.2592 9.92481C13.1118 9.94054 9.9769 10.0205 9.29268 10.1026C4.90059 10.6293 1.86798 12.3182 0.580164 14.9548C-0.294139 16.7446 -0.177035 19.4731 0.909583 22.6341C1.42328 24.1283 5.95055 34.449 8.87568 40.794C18.8858 62.5077 32.3329 87.857 44.6239 108.184C51.8164 120.078 61.5422 134.388 70.5629 146.349C79.199 157.8 84.506 164.458 88.5121 168.867C90.6747 171.248 96.7386 177.179 99.6092 179.72C103.797 183.429 110.322 188.277 117.44 192.968C131.408 202.174 139.877 206.409 151.858 210.178C158.156 212.159 165.646 213.83 170.436 214.323C170.983 214.38 171.581 214.449 171.765 214.478C171.948 214.507 172.769 214.582 173.589 214.645C174.409 214.707 175.342 214.793 175.661 214.836C176.821 214.99 208.26 214.883 209.408 214.721C213.204 214.186 215.99 212.993 218.112 210.994C220.575 208.676 221.601 205.227 221.609 199.251C221.615 193.834 222.023 189.546 222.947 185.177C224.641 177.163 226.619 173.12 230.97 168.775C232.569 167.177 233.209 166.658 234.17 166.179C238.558 163.99 243.136 165.553 250.458 171.741C252.747 173.675 256.092 177.126 258.795 180.34C268.784 192.22 277.391 201.228 283.205 205.887C288.551 210.171 295.782 213.682 302.635 215.32C304.345 215.729 307.413 216.088 308.28 215.981C310.282 215.734 314.903 215.562 321.71 215.482C326.089 215.431 331.463 215.354 333.652 215.311C337.842 215.229 344.728 215.123 355.216 214.979C365.204 214.842 366.889 214.71 369.946 213.826C373.308 212.853 376.654 210.48 377.774 208.275C378.976 205.906 378.998 202.269 377.838 197.512C376.544 192.208 368.75 180.926 358.595 169.656C352.772 163.193 342.076 152.516 337.054 148.152C335.011 146.377 324.918 136.376 322.829 134.057C320.708 131.703 319.668 130.229 318.71 128.218C317.793 126.296 317.331 124.616 317.204 122.741C316.774 116.406 319.866 111.276 339.053 86.4931C344.527 79.422 352.764 68.4981 355.47 64.7198C367.263 48.2533 374.402 36.0241 377.442 27.0802C378.453 24.1034 378.844 22.2826 378.964 19.9844C379.098 17.436 378.879 16.3318 377.909 14.6709C376.779 12.7356 375.703 11.9864 372.414 10.8436C368.74 9.56667 368.249 9.542 353.308 9.88242C349.066 9.97912 334.996 10.1048 322.042 10.1619L298.488 10.2657L296.78 10.6677C295.84 10.889 294.907 11.155 294.706 11.2592C293.64 11.8119 292.031 13.1994 291.22 14.2666C290.121 15.7112 289.689 16.556 288.544 19.4941C282.549 34.874 273.908 52.5434 266.138 65.3086C259.77 75.7708 254.691 83.4676 250.3 89.3079C247.303 93.2934 245.908 94.9 242.816 97.9255C237.655 102.977 234.447 105.27 232.526 105.282C231.745 105.287 228.974 104.659 228.325 104.329C227.588 103.955 225.645 102.031 224.893 100.93C222.965 98.1093 222.064 94.8342 221.412 88.2716C221.174 85.8737 221.133 78.5533 221.316 70.8462C221.384 67.9776 221.484 62.639 221.538 58.9828C221.592 55.3265 221.66 52.0854 221.687 51.7802C221.715 51.4751 221.792 49.2509 221.859 46.8376C221.926 44.4243 222.002 42.1518 222.028 41.7875C222.326 37.5605 222.461 22.9388 222.228 20.0142C221.993 17.0466 221.417 14.4896 220.368 11.7485C219.49 9.45324 218.829 8.31309 217.653 7.06597C214.536 3.76172 209.263 2.12748 197.722 0.888639C195.84 0.686636 193.136 0.484634 191.087 0.392739C189.855 0.337602 188.4 0.264087 187.852 0.229482C186.121 0.120036 173.757 -0.0619332 173.67 0.0210206Z" fill="white"/>
</svg>
