<svg width="240" height="240" viewBox="0 0 240 240" fill="none" xmlns="http://www.w3.org/2000/svg">
<path fill-rule="evenodd" clip-rule="evenodd" d="M4.08808 0.785931C-1.0706 3.03193 -1.4319 10.6978 3.48814 13.5114C4.27264 13.9603 8.19295 14.3054 14.5504 14.4861L24.3978 14.7655L26.5383 16.4974C27.7159 17.4497 29.1014 18.9552 29.6172 19.8429C30.2417 20.9174 34.4926 45.1272 42.3344 92.2715C48.8128 131.22 54.4728 164.66 54.9121 166.583C55.9866 171.286 57.521 174.129 60.9328 177.736C64.29 181.285 67.312 183.172 71.9611 184.619C75.1956 185.625 78.4117 185.669 149.026 185.667C221.129 185.665 222.754 185.641 224.5 184.576C229.065 181.793 229.12 175.59 224.608 172.395C223.374 171.522 217.673 171.429 149.394 171.172C88.1486 170.94 75.2775 170.762 74.1217 170.126C72.3113 169.13 70.2611 167.258 69.5635 165.964C68.9915 164.902 65.0957 142.653 65.4241 142.325C65.5261 142.223 97.1947 139.397 135.799 136.046C174.403 132.695 207.107 129.794 208.475 129.601C217.292 128.351 225.906 121.385 229.061 112.954C229.651 111.376 232.441 96.2907 235.26 79.4317C240.78 46.4292 240.885 45.174 238.583 39.8033C237.009 36.1315 232.287 31.6618 228.274 30.0459L224.946 28.7054L135.617 28.5543L46.2892 28.4037L45.9324 26.3239C44.1415 15.8918 42.5317 11.9685 38.2418 7.58416C34.9839 4.25419 29.6507 1.39538 25.1187 0.549509C20.6074 -0.292463 6.19293 -0.130202 4.08808 0.785931ZM223.571 43.7706C224.518 44.2601 225.373 45.2599 225.597 46.1404C225.927 47.429 218.324 95.9221 216.188 106.153C215.539 109.265 212.446 113.061 209.371 114.52C207.646 115.339 175.901 118.264 78.5823 126.573C71.3756 127.188 64.8844 127.751 64.1573 127.824L62.8353 127.958L55.9537 86.6955C52.1689 64.0013 48.9723 44.869 48.8502 44.1787L48.6277 42.9241H135.281C211.677 42.9241 222.128 43.0245 223.571 43.7706Z" fill="white"/>
<circle cx="198.5" cy="221.5" r="13.5" stroke="white" stroke-width="10"/>
<circle cx="84.5" cy="221.5" r="13.5" stroke="white" stroke-width="10"/>
</svg>
