<svg width="335" height="298" viewBox="0 0 335 298" fill="none" xmlns="http://www.w3.org/2000/svg">
<path fill-rule="evenodd" clip-rule="evenodd" d="M90.2847 1.72993C85.0193 4.93186 76.4763 15.0783 72.6683 22.6517C70.0956 27.7698 69.5285 30.7406 69.5374 39.0719C69.5424 44.6674 70.0943 52.6552 70.765 56.8233C71.4356 60.9915 72.7896 71.3729 73.7735 79.8924C75.5114 94.9446 75.7059 95.5686 80.6884 101.996C93.758 118.856 125.259 144.869 128.582 141.546C129.756 140.372 125.022 135.895 114.995 128.698C102.869 119.994 99.4365 116.994 96.7185 112.728C94.6964 109.554 94.6851 109.201 96.5783 108.475C99.7775 107.247 114.989 112.673 126.536 119.162C132.28 122.389 140.842 128.732 145.564 133.257C153.523 140.883 154.149 141.872 154.149 146.835C154.149 150.652 154.67 152.187 155.969 152.187C158.85 152.187 159.529 154.402 159.399 163.376C159.28 171.59 159.317 171.69 161.214 168.214C164.047 163.021 168.148 164.028 170.53 170.501C173.11 177.513 173.066 218.826 170.471 225.98C169.483 228.706 168.02 231.15 167.223 231.411C164.983 232.145 161.924 222.373 159.821 207.762C156.936 187.716 155.407 181.091 153.883 182.033C151.556 183.472 153.54 214.497 156.701 226.077C161.513 243.705 161.648 245.174 158.947 250.634C155.543 257.514 137.442 274.527 126.793 280.854C109.225 291.291 92.5001 294.601 85.0989 289.104C82.1156 286.887 81.4627 285.383 81.1456 279.985C80.5015 269.046 85.1961 264.646 89.4789 272.172C92.5683 277.602 93.6128 276.856 92.5531 269.97C90.8771 259.078 91.4454 253.634 94.608 250.267C102.653 241.702 100.842 216.319 90.8468 197.563C85.5371 187.601 71.111 173.956 60.2189 168.593C52.3011 164.695 51.3324 164.516 42.5216 165.314C32.6121 166.212 31.637 165.705 31.637 159.662C31.637 156.031 27.0915 152.187 22.7998 152.187C20.2611 152.187 17.4333 153.615 14.2139 156.524C11.5729 158.909 8.80568 160.472 8.06303 159.997C7.32038 159.523 5.20232 156.292 3.35707 152.818L0 146.503L0.795695 152.187C1.23396 155.313 2.6321 159.584 3.90395 161.679C6.23546 165.518 12.846 171.133 15.0361 171.133C16.6111 171.133 24.0325 179.646 24.1588 181.598C24.2131 182.441 24.4935 186.827 24.7827 191.342C25.8462 207.938 29.961 215.341 38.1226 215.341C42.5545 215.341 42.5911 214.799 38.5192 209.46C31.3491 200.059 29.8815 190.909 34.0671 181.692C36.8899 175.474 42.456 173.043 51.8047 173.941C75.3169 176.2 95.9418 205.762 93.0836 233.108C91.6576 246.755 88.9636 249.393 76.4258 249.427C66.6198 249.453 59.7617 245.375 54.2853 236.259C49.2951 227.953 46.7931 226.129 46.7931 230.8C46.7931 241.711 57.3102 256.13 66.3697 257.641C75.039 259.086 74.65 258.39 74.3747 271.956C74.1625 282.355 74.5325 285.137 76.6039 288.723C83.1576 300.073 100.593 300.371 122.046 289.5C130.914 285.005 140.142 277.62 154.274 263.705L166.396 251.767L180.165 264.617C197.845 281.116 206.844 287.89 218.472 293.45C226.191 297.141 229.327 297.948 236.154 297.999C250.567 298.106 260.928 290.899 262.427 279.723C263.732 269.994 258.032 263.338 248.395 263.338C243.173 263.338 240.033 266.067 240.033 270.604C240.033 272.906 241.834 275.575 246.021 279.476L252.01 285.052L249.06 287.441C235.728 298.238 212.603 289.266 188.126 263.798C173.905 249.001 173.387 246.539 178.731 219.125C182.563 199.472 182.738 189.589 179.443 179.075C176.044 168.237 175.024 159.449 176.78 156.167C178.492 152.97 183.66 150.132 192.516 147.523C200.226 145.253 214.267 138.384 221.543 133.322C224.419 131.322 232.455 124.723 239.402 118.66C246.348 112.596 254.531 106.024 257.585 104.057L263.139 100.478L259.795 99.2076C255.389 97.5314 255.475 95.7543 260.993 74.3967C264.508 60.7894 265.57 54.1153 265.695 44.824C265.925 27.9112 263.318 19.9361 254.79 11.4595C240.713 -2.53299 222.782 -1.1878 220.499 14.0312L219.622 19.8881L214.355 14.7246C208.05 8.54303 200.788 5.71877 188.881 4.82071C179.426 4.10707 173.094 5.66698 173.094 8.70976C173.094 11.4974 177.303 12.2767 187.358 11.3496C198.375 10.3341 201.64 11.4254 209.947 18.894C216.107 24.4327 227.297 29.6669 232.979 29.6669C236.791 29.6669 238.381 27.6485 240.689 19.8755C242.872 12.5218 245.587 9.62171 248.541 11.4848C249.631 12.1719 252.567 16.6862 255.065 21.5162C259.405 29.9019 259.608 30.8694 259.578 42.9294C259.554 52.4442 258.685 58.9883 256.058 69.4542C249.814 94.3282 248.389 95.9387 224.246 105.383C205.202 112.831 192.274 120.704 179.847 132.419L169.329 142.333L153.324 130.257C134.951 116.393 125.11 110.899 106.662 104.202C99.4453 101.582 92.1237 98.5091 90.3921 97.3748C85.983 94.4861 82.708 87.4444 78.7497 72.3467C75.9926 61.8315 75.3295 56.4545 75.2765 44.1925C75.2019 26.9008 76.8161 22.0252 86.113 11.4633C94.3478 2.10633 96.5493 3.38458 97.71 18.1956C98.3149 25.9092 99.8924 27.6852 107.176 28.8497C109.792 29.2691 113.22 30.81 114.792 32.2752C118.382 35.6199 121.309 34.6081 121.316 30.0219C121.322 24.8546 125.405 19.0254 133.276 12.9462C142.058 6.16338 142.401 3.83424 134.494 4.72598C128.55 5.39668 123.277 9.04195 121.879 13.4463C120.745 17.0184 117.194 16.2277 112.469 11.3521C107.604 6.33263 100.422 1.22596 96.6781 0.124547C95.2357 -0.299851 92.4849 0.391059 90.2847 1.72993ZM147.834 5.53688C147.834 6.15832 150.675 8.49125 154.149 10.7206C157.622 12.95 160.464 15.5481 160.464 16.4967C160.464 17.444 157.355 20.5159 153.555 23.3237C137.581 35.126 141.841 39.7578 168.673 39.7578C182.492 39.7578 191.213 38.3406 192.755 35.8447C194.542 32.9535 171.799 15.0416 156.728 7.47067C150.255 4.21948 147.834 3.69277 147.834 5.53688ZM109.177 17.7712C110.507 21.2383 110.02 23.2214 107.508 24.5653C106.17 25.2828 104.202 25.5341 103.137 25.1249C100.449 24.0942 99.3203 19.8148 101.153 17.607C103.18 15.1641 108.216 15.2677 109.177 17.7712ZM236.244 17.5956C236.244 19.6266 231.541 23.3515 228.977 23.3515C226.568 23.3515 225.606 19.8338 227.417 17.6512C229.46 15.1881 236.244 15.1452 236.244 17.5956ZM209.126 37.1886C206.712 41.0107 203.818 43.2047 196.795 46.533C176.984 55.9228 161.81 57.196 143.6 50.9942C127.192 45.4075 123.837 44.7015 123.837 46.8336C123.837 49.8258 132.938 54.7746 143.442 57.4928C155.006 60.485 174.434 61.0787 183.238 58.7066C195.126 55.5059 211.211 45.165 214.835 38.3936C216.112 36.0076 215.224 32.1931 213.391 32.1931C212.779 32.1931 210.86 34.4414 209.126 37.1886ZM104.26 59.808C97.1921 63.0238 95.578 65.3555 96.4811 71.0394C97.3412 76.4454 96.6806 77.8816 92.2614 80.2196L89.1038 81.8906L93.2996 83.6071C97.1302 85.1746 97.4207 85.6672 96.6326 89.2582L95.7687 93.1915L100.645 92.3705C103.328 91.9183 107.344 91.2059 109.57 90.7878C113.601 90.0287 113.615 90.0426 112.891 94.5025L112.164 98.9802L119.136 97.3597C128.335 95.22 138.259 90.2156 138.769 87.457C139.474 83.6387 133.351 82.4173 116.574 83.0286C105.839 83.4189 101.114 83.1676 101.138 82.2076C101.157 81.4447 102.862 78.5889 104.927 75.8606C108.907 70.5999 109.701 67.5672 107.102 67.5482C106.234 67.5432 107.655 65.5172 110.259 63.0479C112.865 60.5785 114.995 58.31 114.995 58.0069C114.995 56.6781 108.89 57.7025 104.26 59.808ZM221.088 60.5634C221.088 62.3544 223.409 66.5213 226.563 70.394C229.574 74.091 233.116 78.7607 234.433 80.7715L236.828 84.4269L233.694 83.5617C231.97 83.0867 227.306 82.3377 223.326 81.8982C217.142 81.2161 215.969 81.422 215.242 83.3179C214.488 85.282 213.243 85.4361 204.366 84.6618C195.193 83.861 194.379 83.9772 194.773 86.0247C195.734 91.0126 211.112 96.569 224.027 96.5955C230.439 96.6081 231.848 96.1484 234.976 93.0209C241.203 86.7939 242.449 76.2471 238.003 67.3941C235.465 62.3393 228.967 57.4549 224.78 57.4549C221.699 57.4549 221.088 57.9702 221.088 60.5634ZM48.0561 108.522C38.5848 111.845 22.0963 119.939 20.9204 121.841C18.8074 125.26 31.4615 121.55 54.8991 111.881C61.7875 109.038 67.7085 106.43 68.0546 106.083C69.896 104.241 55.1176 106.043 48.0561 108.522ZM240.033 106.613C240.033 109.015 227.246 121.64 219.581 126.807C203.162 137.874 182.472 146.016 180.182 142.31C178.278 139.231 199.623 124.536 224.261 111.966C236.91 105.512 240.033 104.452 240.033 106.613ZM290.128 114.927C314.266 126.672 328.444 140.602 328.444 152.572C328.444 155.109 327.505 157.697 326.134 158.938C323.091 161.691 320.866 161.59 320.866 158.698C320.866 155.51 316.909 152.187 313.113 152.187C308.588 152.187 305.625 154.84 304.585 159.827L303.677 164.186L293.641 163.779C284.235 163.396 283.037 163.657 274.52 167.936C253.517 178.487 235.616 207.274 236.399 229.235C237.004 246.153 243.229 254.986 256.301 257.475C263.559 258.858 270.286 255.944 278.101 248.032C286.029 240.007 289.893 231.3 288.536 224.516C287.68 220.238 288.199 219.565 299.662 210.083C305.38 205.353 309.463 196.621 309.526 188.987C309.541 187.156 310.64 183.266 311.968 180.341C314.031 175.795 315.567 174.486 322.56 171.315C327.258 169.185 331.679 166.171 332.947 164.235C335.951 159.651 335.626 150.987 332.183 143.875C328.541 136.351 317.532 124.522 308.739 118.686C300.563 113.257 283.373 106.69 277.571 106.776C274.238 106.825 276.506 108.298 290.128 114.927ZM252.243 116.399C251.779 116.862 251.4 119.778 251.4 122.88V128.519L246.911 127.79C243.515 127.239 241.84 127.643 240.032 129.452C231.56 137.925 228.838 157.239 236.115 157.239C243.167 157.239 257.715 134.955 257.715 124.157C257.715 118.209 254.703 113.939 252.243 116.399ZM264.797 120.081C262.409 126.303 265.668 141.525 270.487 146.654C272.742 149.055 277.686 150.829 277.988 149.345C280.235 138.288 277.477 126.373 271.508 121.351C267 117.556 265.849 117.339 264.797 120.081ZM63.2261 122.82C58.7866 126.862 56.3377 136.834 57.6436 145.555C58.5757 151.78 59.9019 152.224 63.6618 147.572C71.0605 138.418 74.6866 127.779 72.2389 122.407C70.4252 118.425 67.927 118.539 63.2261 122.82ZM79.6755 123.052C76.6064 128.788 80.1087 142.183 87.2586 152.054C94.4653 162.003 100.948 156.976 99.463 142.59C98.56 133.836 95.1524 127.119 89.7543 123.451C84.624 119.965 81.397 119.838 79.6755 123.052ZM93.5244 142.102C93.5244 147.849 88.1402 142.457 86.5665 135.135L85.7518 131.346L89.6381 135.471C91.7751 137.739 93.5244 140.723 93.5244 142.102ZM24.6261 160.447C27.5714 163.625 29.8373 169.564 28.5831 170.818C27.8543 171.548 18.935 164.108 17.36 161.455C16.8018 160.514 16.6932 159.182 17.1188 158.492C18.4614 156.319 21.5469 157.124 24.6261 160.447ZM314.55 162.121C314.55 164.782 309.976 171.133 308.059 171.133C306.57 171.133 307.743 166.646 310.29 162.607C312.468 159.155 314.55 158.916 314.55 162.121ZM294.471 171.459C300.804 175.667 304.785 184.155 303.959 191.683C302.823 202.017 298.749 206.518 287.525 209.838C282.003 211.471 279.367 216.13 277.297 227.925C274.973 241.17 273.27 243.116 263.26 243.975C252.551 244.894 246.147 242.485 244.209 236.808C241.8 229.753 242.319 220.921 245.741 210.728C250.909 195.334 259.559 183.704 272.492 174.764C282.511 167.841 287.825 167.042 294.471 171.459ZM50.6857 193.07C46.7123 199.498 47.2579 204.346 52.6232 210.285C55.1353 213.066 56.5562 215.341 55.7807 215.341C52.9781 215.341 54.4596 219.982 58.4759 223.784C63.9321 228.948 67.1919 230.498 72.6014 230.498C77.176 230.498 78.7005 228.505 75.164 227.147C71.8865 225.89 69.4578 219.488 68.2529 208.931C66.8332 196.481 66.0893 195.149 63.2008 199.898C59.1213 206.608 51.6481 205.236 54.4406 198.289C55.8527 194.777 55.8741 188.816 54.4747 188.816C53.8357 188.816 52.1306 190.731 50.6857 193.07ZM271.147 191.435C269.082 193.058 267.819 195.293 267.819 197.323C267.819 201.909 262.477 210.51 257.064 214.64C254.551 216.555 252.765 218.39 253.093 218.717C253.418 219.044 256.388 218.395 259.689 217.274C262.991 216.152 266.155 215.697 266.719 216.262C267.284 216.826 266.909 220.07 265.886 223.47C263.635 230.952 264.492 232.311 268.515 227.636C272.026 223.556 275.397 213.131 275.397 206.353C275.397 195.753 280.995 191.088 284.259 198.969C286.138 203.506 288.283 203.3 288.923 198.519C289.999 190.485 278.288 185.816 271.147 191.435ZM199.923 210.213C193.366 214.962 186.127 224.438 184.239 230.742C183.003 234.866 183.082 235.976 184.73 237.623C186.506 239.4 187.223 239.354 192.25 237.129C201.549 233.015 209.636 221.012 209.693 211.236C209.729 205.246 207.149 204.977 199.923 210.213ZM127.205 211.131C125.961 212.375 126.182 218.491 127.608 222.24C130.321 229.379 144.341 241.866 149.641 241.866C152.356 241.866 153.393 236.495 151.679 231.303C148.29 221.031 131.303 207.031 127.205 211.131ZM204.669 217.118C204.669 218.739 195.323 227.318 190.776 229.869C188.625 231.077 191.363 227.491 198.253 220.078C202.935 215.04 204.669 214.241 204.669 217.118ZM136.741 218.815C141.555 224.335 142.711 231.582 138.175 227.818C136.646 226.548 132.678 218.798 132.678 217.082C132.678 215.837 135.012 216.833 136.741 218.815ZM116.856 243.185C115.619 245.184 118.312 247.72 125.452 251.278C133.087 255.083 138.887 255.38 142.852 252.168C149.175 247.047 140.94 241.866 126.477 241.866C121.634 241.866 117.304 242.46 116.856 243.185ZM196.333 243.644C187.381 247.6 191.448 255.319 201.865 254.144C208.016 253.451 219.193 247.125 219.193 244.338C219.193 241.77 201.77 241.241 196.333 243.644ZM251.96 271.199C254.09 274.24 254.606 280.452 252.82 281.556C251.418 282.422 245.085 273.396 245.085 270.533C245.085 267.422 249.622 267.86 251.96 271.199Z" fill="white"/>
</svg>
