<?xml version="1.0" standalone="no"?>
<!DOCTYPE svg PUBLIC "-//W3C//DTD SVG 20010904//EN"
 "http://www.w3.org/TR/2001/REC-SVG-20010904/DTD/svg10.dtd">
<svg version="1.0" xmlns="http://www.w3.org/2000/svg"
 width="193.000000pt" height="88.000000pt" viewBox="0 0 193.000000 88.000000"
 preserveAspectRatio="xMidYMid meet">

<g transform="translate(0.000000,88.000000) scale(0.100000,-0.100000)"
fill="#000000" stroke="none">
<path d="M800 853 c-19 -24 -21 -35 -15 -78 4 -27 8 -59 8 -70 2 -20 82 -95
102 -95 5 0 -7 11 -28 25 -48 33 -48 50 0 30 43 -18 85 -54 77 -66 -3 -5 -1
-9 4 -9 6 0 8 -10 6 -22 -2 -13 -2 -17 2 -10 12 25 24 -1 24 -51 0 -74 -16
-94 -25 -31 -9 66 -13 76 -14 33 -1 -20 4 -50 10 -68 10 -29 9 -35 -16 -61
-55 -58 -136 -76 -132 -30 1 23 12 26 21 8 3 -7 4 -1 1 14 -3 15 -1 30 5 33
15 9 12 62 -5 95 -20 39 -70 73 -95 65 -14 -5 -20 -2 -20 9 0 19 -25 21 -36 4
-5 -8 -10 -6 -16 8 -8 18 -8 18 -5 -1 1 -11 12 -24 24 -30 15 -6 21 -18 21
-36 -1 -30 8 -49 25 -49 8 0 8 3 -1 12 -17 17 -15 57 3 64 49 19 108 -42 103
-106 -3 -32 -6 -35 -33 -35 -21 0 -33 7 -42 25 -7 14 -13 19 -13 12 0 -24 20
-52 39 -52 14 0 17 -6 13 -29 -9 -65 70 -62 139 5 l36 35 43 -40 c49 -45 88
-58 119 -41 25 13 28 48 5 57 -25 9 -38 -12 -17 -28 16 -13 17 -12 4 4 -7 9
-9 17 -3 17 20 0 21 -30 1 -41 -28 -14 -66 2 -109 46 -31 32 -32 34 -21 84 6
28 9 56 7 63 -19 61 -18 67 23 78 22 6 56 26 76 45 20 18 42 36 48 39 9 3 9 5
0 5 -8 1 -7 14 3 49 18 58 11 107 -20 127 -27 18 -56 11 -56 -14 -1 -14 -2
-14 -14 2 -13 17 -76 25 -76 8 0 -4 12 -6 27 -3 16 3 30 -1 37 -10 6 -8 22
-18 34 -22 19 -6 25 -4 29 13 7 29 18 26 32 -8 10 -22 9 -40 -1 -82 -12 -51
-15 -54 -62 -71 -27 -9 -61 -29 -77 -44 l-27 -26 -39 30 c-21 17 -57 36 -80
43 -37 10 -42 16 -52 55 -15 58 -14 86 5 112 19 28 31 28 30 0 -1 -14 5 -23
14 -23 8 0 18 -4 22 -10 5 -6 8 -3 8 7 0 9 10 24 22 32 19 13 20 16 5 16 -10
0 -20 -6 -23 -14 -5 -12 -9 -11 -25 5 -25 25 -34 24 -59 -8z m60 -13 c0 -5 -4
-10 -10 -10 -5 0 -10 5 -10 10 0 6 5 10 10 10 6 0 10 -4 10 -10z m240 6 c0 -3
-4 -8 -10 -11 -5 -3 -10 -1 -10 4 0 6 5 11 10 11 6 0 10 -2 10 -4z m-10 -191
c-31 -30 -104 -63 -98 -43 4 11 101 68 116 68 4 0 -5 -11 -18 -25z m-386 -91
c5 -14 4 -15 -9 -4 -17 14 -19 20 -6 20 5 0 12 -7 15 -16z"/>
<path d="M943 859 c18 -10 18 -12 -2 -26 -12 -8 -19 -18 -16 -22 6 -11 84 -11
91 0 5 8 -68 59 -83 59 -5 0 0 -5 10 -11z"/>
<path d="M1047 806 c-3 -8 -25 -20 -48 -26 -34 -10 -50 -9 -81 3 -21 9 -36 11
-33 7 13 -21 82 -33 118 -21 35 12 65 37 55 47 -3 3 -8 -2 -11 -10z"/>
<path d="M841 761 c-7 -5 -11 -13 -7 -19 3 -6 0 -13 -6 -15 -10 -4 -10 -6 0
-6 7 -1 10 -6 6 -12 -4 -8 1 -9 16 -4 16 5 20 4 15 -5 -5 -9 -1 -10 16 -5 55
17 39 32 -26 25 -16 -2 -17 0 -6 14 7 9 10 16 5 16 -5 0 -2 5 6 10 8 5 11 10
5 10 -5 0 -16 -4 -24 -9z"/>
<path d="M1070 763 c0 -3 8 -15 18 -26 16 -19 16 -20 -5 -15 -13 4 -23 2 -23
-2 0 -4 -9 -6 -20 -3 -11 3 -20 2 -20 -1 0 -11 47 -25 67 -20 21 6 28 41 11
61 -11 14 -28 18 -28 6z"/>
<path d="M723 665 c-18 -8 -33 -16 -33 -19 0 -3 15 1 33 8 17 7 39 16 47 19
13 5 13 5 0 6 -8 0 -30 -6 -47 -14z"/>
<path d="M1199 663 c52 -21 91 -67 73 -85 -9 -9 -12 -9 -12 0 0 7 -7 12 -15
12 -8 0 -15 -7 -15 -15 0 -9 -6 -12 -15 -9 -44 17 -115 -56 -115 -119 0 -39
15 -57 47 -57 24 0 58 41 51 62 -3 7 5 17 16 23 13 7 22 22 24 42 2 21 10 33
23 36 62 16 6 105 -76 122 -21 4 -17 0 14 -12z m42 -106 c-10 -9 -11 -8 -5 6
3 10 9 15 12 12 3 -3 0 -11 -7 -18z m-21 -11 c18 -23 8 -61 -17 -64 -16 -2
-23 -11 -25 -35 -3 -28 -7 -32 -33 -32 -24 0 -31 5 -33 23 -5 33 16 79 46 102
29 24 45 25 62 6z"/>
<path d="M1160 504 c0 -9 -8 -23 -17 -30 -17 -13 -17 -14 1 -7 16 5 18 3 12
-13 -5 -15 -4 -16 5 -7 6 6 12 23 12 37 0 27 12 35 20 14 3 -8 6 -6 6 5 1 11
-6 17 -19 17 -12 0 -20 -7 -20 -16z"/>
<path d="M1129 653 c-1 -5 -1 -11 0 -15 0 -4 -5 -5 -13 -2 -14 5 -33 -43 -21
-55 10 -9 45 38 45 60 0 18 -9 27 -11 12z"/>
<path d="M1153 635 c0 -13 6 -30 13 -36 11 -9 14 -7 14 14 0 13 -6 30 -14 36
-11 9 -13 6 -13 -14z"/>
<path d="M767 643 c-4 -3 -7 -18 -7 -32 1 -25 1 -25 15 -7 23 30 15 63 -8 39z"/>
<path d="M800 634 c0 -21 18 -54 30 -54 14 0 12 44 -2 58 -17 17 -28 15 -28
-4z m28 -29 c-3 -3 -9 2 -12 12 -6 14 -5 15 5 6 7 -7 10 -15 7 -18z"/>
<path d="M743 504 c-3 -9 0 -20 8 -25 8 -5 10 -9 5 -9 -5 0 -3 -7 4 -15 7 -8
20 -15 29 -14 10 0 11 2 4 6 -7 2 -13 19 -14 36 0 18 -3 26 -6 20 -2 -7 -9
-13 -15 -13 -6 0 -8 7 -4 15 3 8 3 15 0 15 -2 0 -7 -7 -11 -16z"/>
<path d="M1021 471 c-28 -28 -29 -56 -2 -41 20 10 37 47 28 57 -3 2 -15 -5
-26 -16z m19 -5 c0 -2 -8 -10 -17 -17 -16 -13 -17 -12 -4 4 13 16 21 21 21 13z"/>
<path d="M890 467 c0 -14 31 -47 43 -47 14 0 7 27 -11 43 -22 21 -32 21 -32 4z
m28 -22 c-3 -3 -9 2 -12 12 -6 14 -5 15 5 6 7 -7 10 -15 7 -18z"/>
<path d="M883 405 c11 -7 25 -11 33 -8 22 8 6 23 -24 23 -25 -1 -26 -2 -9 -15z"/>
<path d="M1016 411 c-10 -16 21 -20 41 -6 17 13 16 14 -9 15 -15 0 -29 -4 -32
-9z"/>
<path d="M408 183 c6 -2 18 -2 25 0 6 3 1 5 -13 5 -14 0 -19 -2 -12 -5z"/>
<path d="M33 13 c9 -2 25 -2 35 0 9 3 1 5 -18 5 -19 0 -27 -2 -17 -5z"/>
<path d="M208 13 c18 -2 45 -2 60 0 15 2 0 4 -33 4 -33 0 -45 -2 -27 -4z"/>
<path d="M888 13 c18 -2 45 -2 60 0 15 2 0 4 -33 4 -33 0 -45 -2 -27 -4z"/>
<path d="M1053 13 c9 -2 23 -2 30 0 6 3 -1 5 -18 5 -16 0 -22 -2 -12 -5z"/>
<path d="M1138 13 c6 -2 18 -2 25 0 6 3 1 5 -13 5 -14 0 -19 -2 -12 -5z"/>
<path d="M1268 13 c18 -2 45 -2 60 0 15 2 0 4 -33 4 -33 0 -45 -2 -27 -4z"/>
<path d="M1418 13 c6 -2 18 -2 25 0 6 3 1 5 -13 5 -14 0 -19 -2 -12 -5z"/>
<path d="M1848 13 c18 -2 45 -2 60 0 15 2 0 4 -33 4 -33 0 -45 -2 -27 -4z"/>
</g>
</svg>
