<svg width="279" height="203" viewBox="0 0 279 203" fill="none" xmlns="http://www.w3.org/2000/svg">
<path fill-rule="evenodd" clip-rule="evenodd" d="M104.201 0.0904074C103.448 0.204527 102.47 0.565707 101.76 0.991441C100.326 1.85221 100.45 1.66653 93.0725 13.9592L86.2263 25.3665L55.7154 25.3654C35.2612 25.3645 24.7847 25.402 23.9308 25.4792C18.2024 25.9962 12.8286 27.9258 8.86561 30.8884C7.70616 31.7551 5.77746 33.6311 4.92634 34.7199C2.35995 38.0031 0.885817 41.6365 0.198441 46.3726C0.00853746 47.6814 0 50.588 0 113.936C0 150.344 0.0384186 180.526 0.0854841 181.008C0.392176 184.148 1.34564 187.59 2.59966 190.086C3.48613 191.85 4.81371 193.697 6.28719 195.216C10.2292 199.282 15.5033 201.726 22.6571 202.802C23.9173 202.992 28.641 203 138.953 203C202.193 203 254.427 202.964 255.029 202.919C258.873 202.635 263.225 201.426 266.577 199.712C272.269 196.801 276.199 192.114 277.906 186.201C278.321 184.761 278.521 183.836 278.802 182.047C278.991 180.844 279 177.884 279 114.21V47.6309L278.752 46.0537C278.012 41.3365 276.456 37.629 273.905 34.5011C273.077 33.4862 271.211 31.6934 270.189 30.9314C266.884 28.4673 262.723 26.7318 258.034 25.8618C255.466 25.3854 255.374 25.3837 229.81 25.3747C216.42 25.3698 205.457 25.3533 205.445 25.338C205.434 25.3228 202.352 20.1896 198.596 13.9311C192.804 4.2798 191.673 2.46055 191.149 1.95013C190.119 0.946799 188.909 0.336591 187.481 0.100254C186.714 -0.0267763 105.037 -0.0364044 104.201 0.0904074ZM52.957 6.43866C52.0444 6.62368 51.3326 7.13738 50.9137 7.91325C50.6859 8.33537 50.6763 8.4938 50.6439 12.3793C50.6045 17.109 50.6326 17.3404 51.3442 18.1315C52.2522 19.1411 51.3861 19.0736 63.429 19.0736C73.9094 19.0736 73.9952 19.0718 74.4851 18.8451C74.7567 18.7194 75.1455 18.4501 75.349 18.2466C76.0673 17.5286 76.0675 17.5271 76.1046 13.0757C76.1451 8.21217 76.1246 8.06019 75.3205 7.26245C75.0109 6.95521 74.5605 6.63342 74.3197 6.5472C73.9535 6.41623 72.209 6.38702 63.6479 6.36842C58.0192 6.35616 53.2083 6.38778 52.957 6.43866ZM182.256 13.8521C182.625 14.4371 184.689 17.6977 186.844 21.0977C188.998 24.4978 191.337 28.1906 192.042 29.3039C192.746 30.4172 193.853 32.1651 194.502 33.1881C195.15 34.2111 196.124 35.7501 196.666 36.6081L197.65 38.168L226.035 38.1657C246.043 38.1639 254.655 38.1986 255.217 38.283C259.836 38.9766 263.259 41.2478 265.02 44.7861C265.524 45.8001 265.736 46.4154 266.063 47.8204L266.3 48.8344L266.335 113.389C266.361 161.793 266.338 178.245 266.243 179.148C265.728 184.03 263.239 187.36 258.739 189.188C257.861 189.544 256.118 189.993 255.029 190.142C254.397 190.229 222.149 190.253 138.953 190.229L23.7517 190.195L22.7574 189.958C16.9394 188.569 13.6494 185.191 12.8154 179.749C12.6774 178.849 12.6552 170.124 12.6488 114.454C12.6437 69.3094 12.6765 49.8847 12.7591 49.1436C13.0873 46.2019 14.2066 43.732 16.0439 41.8953C17.6913 40.2485 19.8491 39.1436 22.8213 38.425C23.6029 38.236 25.3452 38.2238 59.2139 38.1692L94.7855 38.1118L96.2502 35.4858C97.0558 34.0415 98.6877 31.1119 99.8766 28.9756C103.12 23.1483 108.41 13.6586 108.675 13.1934L108.907 12.7839L145.246 12.7861L181.585 12.7883L182.256 13.8521ZM142.565 50.8529C136.681 51.2534 131.884 52.2298 126.607 54.1011C120.312 56.3333 114.495 59.6779 109.017 64.2154C107.604 65.3856 103.355 69.6333 102.184 71.0456C95.7908 78.7587 91.7031 87.2611 89.8164 96.7707C89.433 98.7035 89.0817 101.169 88.984 102.612C88.9453 103.184 88.8902 103.774 88.8617 103.925C88.7632 104.443 88.7403 109.89 88.8308 111.256C89.5871 122.667 93.3234 132.898 100.041 141.952C102.908 145.816 106.947 149.932 110.899 153.017C112.443 154.222 115.746 156.425 117.609 157.493C124.304 161.33 132.266 163.878 139.938 164.638C142.232 164.865 142.55 164.883 145.027 164.917C148.817 164.969 151.815 164.747 155.338 164.154C165.436 162.455 174.516 158.255 182.625 151.535C184.244 150.193 188.189 146.25 189.536 144.627C198.353 134.005 202.929 121.444 202.929 107.864C202.929 99.0509 201.064 90.8895 197.241 82.9719C194.398 77.0835 190.593 71.8171 185.771 67.0947C178.53 60.0024 169.982 55.152 160.242 52.6089C157.306 51.8425 153.452 51.175 151.047 51.0167C150.506 50.981 149.998 50.9315 149.92 50.9066C149.627 50.8134 143.774 50.7706 142.565 50.8529ZM213.683 50.9194C209.624 51.551 206.052 54.1713 204.245 57.8423C203.343 59.6739 202.967 61.2862 202.952 63.3866C202.926 67.0183 204.232 70.0872 206.892 72.641C209.309 74.9611 212.222 76.1334 215.569 76.1334C219.172 76.1334 222.267 74.8275 224.729 72.2689C226.238 70.7004 227.12 69.224 227.753 67.2031C228.972 63.3179 228.181 58.973 225.662 55.7149C222.834 52.0571 218.226 50.2125 213.683 50.9194ZM150.391 63.718C153.71 64.0849 156.54 64.6835 159.53 65.6509C175.627 70.8595 187.4 84.8583 189.786 101.627C190.333 105.464 190.333 110.264 189.786 114.1C188.44 123.56 184.106 132.274 177.371 139.059C174.194 142.26 170.791 144.812 166.866 146.936C161.408 149.89 155.976 151.469 149.023 152.123C146.905 152.323 142.196 152.154 139.609 151.786C122.837 149.4 108.83 137.629 103.62 121.541C102.153 117.009 101.556 113.198 101.529 108.182C101.505 103.743 101.817 100.996 102.789 97.0864C106.723 81.2728 119.247 68.7532 135.067 64.8202C137.415 64.2365 138.524 64.0502 142.182 63.6249C143.102 63.5179 149.206 63.5872 150.391 63.718Z" fill="white"/>
</svg>
