<svg width="331" height="407" viewBox="0 0 331 407" fill="none" xmlns="http://www.w3.org/2000/svg">
<path fill-rule="evenodd" clip-rule="evenodd" d="M120.904 0.401572C119.451 0.905267 118.213 1.83766 117.137 3.24039C115.622 5.214 115.652 4.77063 115.652 24.9487C115.652 42.591 115.668 43.2762 116.12 44.4833C117.003 46.8421 119.008 48.6378 121.477 49.281C122.599 49.5732 124.747 49.638 133.323 49.638H143.799V63.4784C143.799 71.0906 143.767 77.3188 143.728 77.3188C143.281 77.3188 133.053 79.1261 130.908 79.5836C108.18 84.4339 85.3593 94.7454 67.2968 108.325C66.0952 109.229 65.0174 109.968 64.9012 109.968C64.7853 109.968 58.7277 104.019 51.44 96.749C36.559 81.9031 37.4675 82.6349 33.9324 82.6503C30.6186 82.6647 31.0392 82.3314 18.632 94.7761C8.16285 105.277 7.58786 105.898 7.09281 107.247C6.38371 109.179 6.49416 111.425 7.39509 113.398C7.97647 114.672 9.38096 116.144 21.0557 127.712C28.2127 134.804 34.0644 140.685 34.0594 140.782C34.0547 140.878 33.1623 142.156 32.0761 143.621C15.8954 165.448 4.96502 192.529 1.41334 219.589C0.056157 229.929 -0.362021 242.461 0.326506 252.157C1.96256 275.198 7.43033 295.425 17.4349 315.444C33.1675 346.925 58.7601 372.811 89.9519 388.791C109.987 399.056 129.45 404.602 152.787 406.696C157.31 407.102 173.73 407.101 178.332 406.695C200.644 404.727 220.235 399.29 239.237 389.792C280.861 368.989 311.85 331.801 324.735 287.192C327.731 276.823 329.65 266.22 330.692 254.286C331.022 250.514 331.113 235.757 330.835 231.219C328.888 199.425 317.339 167.909 298.438 142.808C297.684 141.808 297.068 140.902 297.068 140.797C297.068 140.691 302.972 134.7 310.188 127.482C324.983 112.685 324.377 113.433 324.377 109.968C324.377 106.529 324.767 107.025 312.256 94.5471C299.888 82.2124 300.436 82.642 297.068 82.642C293.665 82.642 294.49 81.972 279.678 96.749C272.391 104.019 266.352 109.968 266.26 109.968C266.168 109.968 264.692 108.943 262.98 107.691C242.012 92.3511 216.897 81.9003 191.695 78.0278C189.874 77.7482 188.144 77.4721 187.852 77.4144L187.32 77.3098V63.4827V49.6558L198.383 49.5877L209.446 49.5197L211.024 48.7421C212.92 47.8088 214.309 46.3272 214.985 44.5183C215.454 43.2658 215.466 42.7538 215.466 24.7964C215.466 6.77879 215.455 6.33069 214.98 5.06164C214.338 3.34472 212.709 1.56511 211.02 0.735397L209.671 0.0729517L165.914 0.0201927C124.01 -0.0302005 122.104 -0.0141125 120.904 0.401572ZM199.619 24.7964V33.7867H165.559H131.499V24.7964V15.806H165.559H199.619V24.7964ZM171.472 62.7687V75.8993H165.559H159.646V62.7687V49.638H165.559H171.472V62.7687ZM175.966 92.089C176.422 92.1464 178.125 92.3118 179.751 92.4564C224.058 96.3937 265.249 121.149 290.376 158.941C303.913 179.301 312.357 203.044 314.567 226.96C314.711 228.522 314.877 230.172 314.935 230.628C314.993 231.083 315.11 234.437 315.194 238.08C315.328 243.901 315.098 251.653 314.68 255.351C313.787 263.27 313.044 268.024 311.837 273.547C306.564 297.659 295.365 320.064 279.069 339.103C275.899 342.807 268.638 350.174 264.9 353.481C243.921 372.037 218.689 384.269 191.602 389.012C182.774 390.557 177.015 391.055 166.86 391.15C154.598 391.265 145.743 390.419 134.551 388.064C111.913 383.301 90.0513 372.901 71.7766 358.201C65.664 353.284 57.0422 344.937 52.0491 339.103C35.7432 320.051 24.5546 297.662 19.276 273.521C17.772 266.642 16.6681 258.803 16.0846 250.856C15.8772 248.032 15.9446 232.207 16.1707 230.628C16.236 230.172 16.4077 228.522 16.5524 226.96C19.2287 198.074 30.9562 169.688 49.6384 146.876C73.0424 118.297 105.707 99.4648 141.941 93.6604C144.329 93.2778 147.027 92.8914 147.938 92.8015C148.849 92.7116 149.753 92.6094 149.948 92.5744C150.144 92.5396 152.113 92.3866 154.324 92.2342C156.536 92.0819 158.611 91.9257 158.936 91.8871C159.796 91.7849 174.988 91.965 175.966 92.089ZM48.4771 124.518L44.3376 128.659L34.9977 119.314L25.6575 109.969L29.7936 105.827L33.9295 101.685L43.273 111.031L52.6168 120.377L48.4771 124.518ZM301.326 105.829L305.462 109.97L296.116 119.318L286.771 128.665L282.573 124.467L278.376 120.268L287.662 110.978C292.769 105.868 297.002 101.687 297.069 101.687C297.136 101.687 299.052 103.551 301.326 105.829ZM161.065 107.421C161 107.486 159.51 107.607 157.754 107.691C149.985 108.062 140.674 109.488 132.682 111.53C100.118 119.853 72.2262 139.735 53.5574 167.932C38.675 190.41 30.7653 218.002 31.5442 244.722C31.6281 247.594 31.7343 250.15 31.7805 250.4C31.8266 250.651 31.9385 251.92 32.0291 253.222C32.2817 256.848 33.4984 265.075 34.4078 269.304C38.4931 288.306 46.6104 306.221 58.1004 321.595C68.8578 335.989 82.4995 348.195 98.031 357.323C102.438 359.913 110.813 364.021 115.602 365.942C125.909 370.076 138.138 373.277 148.175 374.468C149.345 374.607 150.676 374.768 151.131 374.825C157.822 375.666 171.26 375.778 177.977 375.05C184.926 374.296 190.225 373.437 195.578 372.197C226.407 365.051 253.284 347.593 272.568 322.187C277.707 315.416 281.738 308.854 285.719 300.776C290.25 291.583 293.286 283.349 295.62 273.923C298.325 263.005 299.477 253.822 299.525 242.812C299.556 235.579 299.359 231.516 298.713 226.014C294.567 190.743 276.821 158.906 248.816 136.495C228.958 120.604 203.346 110.262 178.45 108.082C176.759 107.933 175.003 107.766 174.547 107.71C173.236 107.549 161.196 107.291 161.065 107.421ZM157.636 130.85V138.003L158.317 139.478C159.11 141.196 160.777 142.878 162.433 143.631C164.159 144.415 167.126 144.351 168.904 143.49C170.526 142.704 172.009 141.148 172.854 139.346L173.483 138.003V130.817V123.63L175.73 123.769C185.509 124.376 199.218 127.617 209.484 131.75C213.616 133.414 220.852 136.946 224.701 139.179C230.318 142.438 238.246 148.038 242.075 151.452L243.258 152.506L238.396 157.439C232.597 163.323 232.386 163.657 232.383 166.985C232.38 168.988 232.452 169.369 233.038 170.483C235.114 174.433 239.814 175.995 243.724 174.035C244.26 173.766 246.831 171.423 249.604 168.674L254.531 163.792L255.591 164.974C256.174 165.625 257.629 167.416 258.824 168.953C267.144 179.655 273.317 191.124 277.567 203.775C280.391 212.179 282.292 220.756 283.101 228.735C283.239 230.101 283.41 231.778 283.48 232.461L283.609 233.703H276.544C268.442 233.703 267.789 233.809 265.783 235.441C264.362 236.597 263.108 238.833 262.899 240.584C262.495 243.952 264.415 247.299 267.593 248.767L269.039 249.436L276.295 249.511L283.551 249.585L283.456 250.339C283.404 250.753 283.243 252.37 283.098 253.931C281.661 269.431 276.231 286.179 267.986 300.539C264.929 305.865 259.975 312.948 256.211 317.377L254.569 319.31L249.867 314.603C244.075 308.803 243.367 308.346 240.183 308.348C237.649 308.349 236.273 308.868 234.664 310.428C233.095 311.95 232.435 313.426 232.314 315.681C232.232 317.229 232.31 317.832 232.743 318.993C233.222 320.279 233.741 320.886 238.243 325.43C242.702 329.931 243.18 330.489 242.884 330.846C241.571 332.428 232.863 338.885 227.826 342.012C212.697 351.402 195.284 357.393 178.213 359.081C176.782 359.223 175.106 359.394 174.488 359.461L173.365 359.584V352.369C173.365 344.159 173.258 343.554 171.452 341.502C168.589 338.248 163.465 338 160.194 340.956C158.988 342.046 158.098 343.711 157.769 345.491C157.616 346.319 157.516 349.506 157.527 353.145C157.538 356.575 157.508 359.419 157.46 359.467C157.2 359.728 147.454 358.492 143.089 357.645C123.579 353.861 105.695 345.36 89.9056 332.365L87.7556 330.596L92.7094 325.606C98.0832 320.193 98.6892 319.336 98.9981 316.707C99.361 313.62 97.3923 310.221 94.4098 308.784C93.299 308.248 92.7333 308.133 91.1717 308.122C88.0207 308.102 87.3461 308.537 81.4741 314.383L76.5071 319.329L74.5964 317.032C62.5111 302.501 53.9335 284.937 50.0216 266.709C48.9154 261.554 48.368 257.912 47.6516 250.933L47.5137 249.591L54.7964 249.514L62.079 249.436L63.4083 248.813C65.2494 247.949 66.5614 246.686 67.3935 244.975C69.4231 240.801 67.4914 235.836 63.1781 234.14C61.926 233.647 61.394 233.609 54.6764 233.517L47.5106 233.42L47.6306 232.438C47.6965 231.898 47.8129 230.657 47.8896 229.681C47.966 228.705 48.2969 226.15 48.6247 224.003C51.9318 202.349 60.8517 182.468 74.7003 165.887L76.5071 163.723L81.5924 168.752C86.1971 173.305 86.8118 173.831 88.0969 174.31C89.2575 174.742 89.8606 174.82 91.4082 174.738C93.6621 174.618 95.1385 173.957 96.6596 172.388C98.2209 170.777 98.7384 169.402 98.7372 166.867C98.7358 163.702 98.3796 163.146 92.62 157.323L87.8603 152.51L89.043 151.454C92.7782 148.118 100.77 142.458 106.191 139.31C113.973 134.79 123.188 130.777 131.381 128.34C137.603 126.489 145.59 124.775 150.303 124.279C151.084 124.197 151.882 124.09 152.077 124.04C152.272 123.991 153.443 123.879 154.679 123.791C155.915 123.704 156.963 123.6 157.008 123.559C157.053 123.519 157.213 123.533 157.363 123.591C157.56 123.667 157.636 125.669 157.636 130.85ZM162.622 157.62C160.964 158.32 159.376 159.788 158.503 161.426L157.872 162.609L157.81 202.872L157.748 243.135L158.252 244.511C158.73 245.818 159.552 246.687 174.516 261.69C192.529 279.751 191.639 279.012 195.357 279.007C196.915 279.006 197.623 278.89 198.478 278.496C200.042 277.776 201.628 276.225 202.393 274.666C202.953 273.526 203.049 273.039 203.049 271.321C203.049 267.624 203.959 268.746 187.881 252.626L173.601 238.308V201.475C173.601 175.161 173.525 164.285 173.336 163.389C172.817 160.936 171.499 159.163 169.337 158.011C168.112 157.358 167.557 157.213 165.947 157.129C164.285 157.042 163.83 157.109 162.622 157.62Z" fill="white"/>
</svg>
